# AST/ASF file generated using VICON BodyLanguage
# -----------------------------------------------
:version 1.10
:name VICON
:units
  mass 1.0
  length 0.45
  angle deg
:documentation
   .ast/.asf automatically generated from VICON data using
   VICON BodyBuilder and BodyLanguage model FoxedUp or BRILLIANT.MOD
:root
   order TX TY TZ RX RY RZ
   axis XYZ
   position 0 0 0  
   orientation 0 0 0 
:bonedata
  begin
     id 1 
     name lhipjoint
     direction 0.535335 -0.74333 0.401095 
     length 2.04549 
     axis 0 0 0  XYZ
  end
  begin
     id 2 
     name lfemur
     direction 0.34202 -0.939693 0  
     length 6.95643  
     axis 0 0 20  XYZ
    dof rx ry rz
    limits (-160.0 20.0)
           (-70.0 70.0)
           (-60.0 70.0)
  end
  begin
     id 3 
     name ltibia
     direction 0.34192 -0.939729 0   
     length 5.55969   
     axis 0 0 20   XYZ
    dof rx
    limits (-10.0 170.0)
  end
  begin
     id 4 
     name lfoot
     direction 0.216943 -0.596046 0.773088   
     length 2.27918   
     axis -90 7.62852e-016 20   XYZ
    dof rx rz
    limits (-45.0 90.0)
           (-70.0 20.0)
  end
  begin
     id 5 
     name ltoes
     direction 1.53519e-011 -4.21748e-011 1   
     length 1.05562   
     axis -90 7.62852e-016 20   XYZ
    dof rx
    limits (-90.0 20.0)
  end
  begin
     id 6 
     name rhipjoint
     direction -0.576368 -0.719173 0.38806   
     length 2.1142  
     axis 0 0 0  XYZ 
  end
  begin
     id 7 
     name rfemur
     direction -0.34202 -0.939693 0   
     length 7.07928   
     axis 0 0 -20   XYZ
    dof rx ry rz
    limits (-160.0 20.0)
           (-70.0 70.0)
           (-70.0 60.0)
  end
  begin
     id 8 
     name rtibia
     direction -0.34202 -0.939693 0   
     length 5.79974   
     axis 0 0 -20   XYZ
    dof rx
    limits (-10.0 170.0)
 end
 begin
     id 9 
     name rfoot
     direction -0.189288 -0.520065 0.832888   
     length 2.42173  
     axis -90 -7.62852e-016 -20   XYZ
    dof rx rz
    limits (-45.0 90.0)
           (-20.0 70.0)
  end
  begin
     id 10 
     name rtoes
     direction -1.53574e-011 -4.21658e-011 1   
     length 1.14469   
     axis -90 -7.62852e-016 -20   XYZ
    dof rx
    limits (-90.0 20.0)
  end
  begin
     id 11 
     name lowerback
     direction -0.00135702 0.993803 0.111144   
     length 1.91308   
     axis 0 0 0   XYZ
    dof rx ry rz
    limits (-20.0 45.0)
           (-30.0 30.0)
           (-30.0 30.0)
  end
  begin
     id 12 
     name upperback
     direction -0.0056745 0.999813 0.0184631   
     length 1.9212   
     axis 0 0 0   XYZ
    dof rx ry rz
    limits (-20.0 45.0)
           (-30.0 30.0)
           (-30.0 30.0)
  end
  begin
     id 13 
     name thorax
     direction -0.00733434 0.999426 -0.0330788   
     length 1.94196   
     axis 0 0 0   XYZ
    dof rx ry rz
    limits (-20.0 45.0)
           (-30.0 30.0)
           (-30.0 30.0)
  end
  begin
     id 14 
     name lowerneck
     direction 0.0563074 0.996944 -0.0541571   
     length 2.34257   
     axis 0 0 0   XYZ
    dof rx ry rz
    limits (-20.0 45.0)
           (-30.0 30.0)
           (-30.0 30.0)
  end
  begin
     id 15 
     name upperneck
     direction -0.0544519 0.976166 -0.210085   
     length 2.32506   
     axis 0 0 0   XYZ
    dof rx ry rz
    limits (-20.0 45.0)
           (-30.0 30.0)
           (-30.0 30.0)
  end
  begin
     id 16
     name head
     direction -0.0226035 0.997615 -0.0652205  
     length 2.3648  
     axis 0 0 0   XYZ
    dof rx ry rz
    limits (-20.0 45.0)
           (-30.0 30.0)
           (-30.0 30.0)
  end
  begin
     id 17 
     name lclavicle
     direction 0.92109 0.381297 -0.0787716  
     length 4.0487  
     axis 0 0 0   XYZ
    dof ry rz
    limits (-20.0 10.0)
           (0.0 20.0)
  end
  begin
     id 18 
     name lhumerus
     direction 1 -4.48986e-011 3.56724e-027   
     length 4.94991   
     axis 180 -30 -90   XYZ
    dof rx ry rz
    limits (-60.0 90.0)
           (-90.0 90.0)
           (-90.0 90.0)
  end
  begin
     id 19
     name lradius
     direction 1 -4.48981e-011 8.62147e-027   
     length 2.7606   
     axis 180 -30 -90   XYZ
    dof rx
    limits (-10.0 170.0)
  end
  begin
     id 20
     name lwrist
     direction 1 -4.48989e-011 1.59799e-026   
     length 1.3803   
     axis -1.17785e-014 90 90   XYZ
    dof ry
    limits (-180.0 0.0)
 end
  begin
     id 21 
     name lhand
     direction 1 -4.48896e-011 3.19599e-026   
     length 0.843936   
     axis -2.03931e-014 90 90   XYZ
    dof rx rz
    limits (-90.0 90.0)
           (-45.0 45.0)
  end
  begin
     id 22 
     name lfingers
     direction 1 -4.48887e-011 6.39197e-026   
     length 0.680403   
     axis -4.07862e-014 90 90   XYZ
    dof rx
    limits (0.0 90.0)
  end
  begin
     id 23
     name lthumb
     direction 0.707107 -6.348e-011 0.707107   
     length 0.976926   
     axis -90 45 2.85299e-015   XYZ
    dof rx rz
    limits (-45.0 45.0)
           (-45.0 45.0)
  end
  begin
     id 24 
     name rclavicle
     direction -0.951104 0.307692 -0.026953   
     length 4.21801  
     axis 0 0 0   XYZ 
    dof ry rz
    limits (-10.0 20.0)
           (-20.0 0.0)
  end
  begin
     id 25 
     name rhumerus
     direction -1 -4.4896e-011 -1.8171e-018  
     length 4.32982   
     axis 180 30 90   XYZ
    dof rx ry rz
    limits (-90.0 60.0)
           (-90.0 90.0)
           (-90.0 90.0)
  end
  begin
     id 26 
     name rradius
     direction -1 -4.48959e-011 8.25165e-027   
     length 3.20057   
     axis 180 30 90   XYZ
    dof rx
    limits (-10.0 170.0)
  end
  begin
     id 27 
     name rwrist
     direction -1 -4.48997e-011 1.59799e-026   
     length 1.60029   
     axis -1.17785e-014 -90 -90   XYZ
    dof ry
    limits (-180.0 0.0)
  end
  begin
     id 28
     name rhand
     direction -1 -4.49023e-011 3.19599e-026   
     length 0.960433   
     axis -2.03931e-014 -90 -90   XYZ
    dof rx rz
    limits (-90.0 90.0)
           (-45.0 45.0)
  end
  begin
     id 29
     name rfingers
     direction -1 -4.48802e-011 6.39197e-026   
     length 0.774326   
     axis -4.07862e-014 -90 -90   XYZ
    dof rx
    limits (0.0 90.0)
  end
  begin
     id 30
     name rthumb
     direction -0.707107 -6.34876e-011 0.707107   
     length 1.11178   
     axis -90 -45 -2.85299e-015   XYZ
    dof rx rz
    limits (-45.0 45.0)
           (-45.0 45.0)
  end
:hierarchy
  begin
    root lhipjoint rhipjoint lowerback
    lhipjoint lfemur
    lfemur ltibia
    ltibia lfoot
    lfoot ltoes
    rhipjoint rfemur
    rfemur rtibia
    rtibia rfoot
    rfoot rtoes
    lowerback upperback
    upperback thorax
    thorax lowerneck lclavicle rclavicle
    lowerneck upperneck
    upperneck head
    lclavicle lhumerus
    lhumerus lradius
    lradius lwrist
    lwrist lhand lthumb
    lhand lfingers
    rclavicle rhumerus
    rhumerus rradius
    rradius rwrist
    rwrist rhand rthumb
    rhand rfingers
end

#!OML:ASF C:\KaitlinTest1\Natural Motions\Nikki\Session 2\Nikki.ASF
:FULLY-SPECIFIED
:DEGREES
77
root -13.6834 16.6516 4.58208 -110.758 87.8437 -118.894
lowerback -11.0373 -0.916863 2.8484
upperback -3.64611 -1.34942 -1.22591
thorax 2.28103 -0.626962 -3.04813
lowerneck -5.22696 -11.777 -9.74409
upperneck 6.08017 40.8492 5.89264
head 166.942 61.8514 -37.9648
rclavicle -1.32689e-014 -1.19271e-015
rhumerus -40.5608 -29.9615 -79.5291
rradius 16.7129
rwrist 27.9168
rhand -36.5936 2.08894
rfingers 7.12502
rthumb -9.68251 -27.6685
lclavicle -1.32689e-014 -1.19271e-015
lhumerus -39.992 16.8594 80.7063
lradius 20.1251
lwrist -42.4512
lhand -33.397 3.52391
lfingers 7.12502
lthumb -6.59747 33.4011
rfemur -5.5237 -13.8232 19.9739
rtibia 11.8798
rfoot -11.3225 11.0446
rtoes 9.54166e-015
lfemur -11.014 14.5823 -18.8303
ltibia 15.7472
lfoot -4.98555 -15.222
ltoes -3.18055e-015
78
root -13.6828 16.652 4.58304 -110.43 87.8469 -118.576
lowerback -11.0585 -0.91216 2.84499
upperback -3.63866 -1.34363 -1.22314
thorax 2.30096 -0.623637 -3.04321
lowerneck -5.2273 -11.7411 -9.7717
upperneck 6.07542 40.8793 5.91457
head 167.153 61.8374 -37.8327
rclavicle 8.34896e-015 1.03368e-014
rhumerus -40.5293 -29.9223 -79.5685
rradius 16.7173
rwrist 27.8471
rhand -36.6214 2.11503
rfingers 7.12502
rthumb -9.70942 -27.6412
lclavicle 8.34896e-015 1.03368e-014
lhumerus -39.9596 16.8941 80.6945
lradius 20.0593
lwrist -42.4342
lhand -33.5229 3.37753
lfingers 7.12502
lthumb -6.71902 33.2509
rfemur -5.53317 -13.8053 19.9854
rtibia 11.8743
rfoot -11.3387 11.0205
rtoes -5.80451e-014
lfemur -11.0338 14.5633 -18.8292
ltibia 15.7384
lfoot -4.94555 -15.2077
ltoes 3.18055e-015
79
root -13.6824 16.6515 4.58349 -110.172 87.8317 -118.331
lowerback -11.0742 -0.918298 2.86763
upperback -3.63342 -1.35491 -1.21809
thorax 2.31372 -0.629027 -3.05262
lowerneck -5.24896 -11.7531 -9.75192
upperneck 6.05786 40.8246 5.89102
head 167.02 61.9095 -37.9191
rclavicle -1.15792e-014 -4.37326e-015
rhumerus -40.5136 -29.9382 -79.5699
rradius 16.7184
rwrist 27.8996
rhand -36.6103 2.14094
rfingers 7.12502
rthumb -9.69868 -27.6158
lclavicle -1.15792e-014 -4.37326e-015
lhumerus -39.9255 16.8383 80.7444
lradius 20.0448
lwrist -42.2893
lhand -33.5358 3.41864
lfingers 7.12502
lthumb -6.73148 33.2916
rfemur -5.54353 -13.7891 20.006
rtibia 11.8636
rfoot -11.3112 11.021
rtoes 3.4191e-014
lfemur -11.0181 14.4986 -18.8031
ltibia 15.7289
lfoot -4.96847 -15.1345
ltoes 7.15625e-014
80
root -13.6823 16.653 4.58407 -108.977 87.8519 -117.157
lowerback -11.0854 -0.893598 2.87064
upperback -3.65137 -1.32187 -1.21794
thorax 2.3035 -0.612674 -3.05002
lowerneck -5.2444 -11.7456 -9.76507
upperneck 6.09008 40.9291 5.92097
head 167.108 61.8148 -37.8789
rclavicle 1.4064e-014 9.54166e-015
rhumerus -40.5473 -29.9616 -79.5152
rradius 16.6732
rwrist 28.099
rhand -36.7068 2.13456
rfingers 7.12502
rthumb -9.79177 -27.6178
lclavicle 1.4064e-014 9.54166e-015
lhumerus -39.9964 16.9144 80.6835
lradius 20.1053
lwrist -42.4732
lhand -33.5059 3.41545
lfingers 7.12502
lthumb -6.70264 33.2894
rfemur -5.56692 -13.7766 20.0105
rtibia 11.8518
rfoot -11.3051 11.0495
rtoes 7.95139e-016
lfemur -11.0505 14.5331 -18.8135
ltibia 15.7222
lfoot -4.94594 -15.1259
ltoes -7.95139e-015
81
root -13.6817 16.6532 4.58497 -110.272 87.8248 -118.422
lowerback -11.0395 -0.916645 2.86707
upperback -3.65509 -1.35111 -1.21611
thorax 2.27251 -0.62795 -3.04859
lowerneck -5.21771 -11.7321 -9.76781
upperneck 6.09929 40.9404 5.93471
head 167.168 61.813 -37.8376
rclavicle -8.15017e-015 7.95139e-016
rhumerus -40.557 -30.0118 -79.5075
rradius 16.6902
rwrist 28.0037
rhand -36.6535 2.13206
rfingers 7.12502
rthumb -9.74035 -27.6227
lclavicle -8.15017e-015 7.95139e-016
lhumerus -40.0083 16.8864 80.685
lradius 20.1084
lwrist -42.4721
lhand -33.4307 3.39071
lfingers 7.12502
lthumb -6.63001 33.2669
rfemur -5.5124 -13.7477 20.0127
rtibia 11.8464
rfoot -11.3232 10.9725
rtoes -4.21423e-014
lfemur -11.0186 14.5362 -18.7917
ltibia 15.7176
lfoot -4.9589 -15.1793
ltoes -2.06736e-014
82
root -13.6819 16.6544 4.58524 -110.392 87.8427 -118.536
lowerback -11.0372 -0.91715 2.85981
upperback -3.6456 -1.35123 -1.22201
thorax 2.28118 -0.627896 -3.05074
lowerneck -5.22498 -11.7313 -9.77188
upperneck 6.09426 40.9345 5.92928
head 167.165 61.8127 -37.8372
rclavicle -2.79789e-014 -1.03368e-014
rhumerus -40.5101 -29.8941 -79.6062
rradius 16.7313
rwrist 27.8393
rhand -36.674 2.11888
rfingers 7.12502
rthumb -9.76014 -27.635
lclavicle -2.79789e-014 -1.03368e-014
lhumerus -40.0209 16.9159 80.6779
lradius 20.1505
lwrist -42.5264
lhand -33.3967 3.44663
lfingers 7.12502
lthumb -6.59717 33.3239
rfemur -5.50166 -13.8197 19.9948
rtibia 11.8283
rfoot -11.3152 11.0378
rtoes -4.29375e-014
lfemur -11.012 14.5305 -18.8084
ltibia 15.7209
lfoot -4.95105 -15.1737
ltoes 3.18055e-015
83
root -13.681 16.6545 4.58529 -108.592 87.8731 -116.748
lowerback -11.044 -0.884431 2.87692
upperback -3.65039 -1.30934 -1.23187
thorax 2.28228 -0.607085 -3.06557
lowerneck -5.23846 -11.735 -9.7598
upperneck 6.09845 40.9586 5.94196
head 167.191 61.7978 -37.8321
rclavicle 2.48481e-016 3.18055e-015
rhumerus -40.5392 -29.8999 -79.5978
rradius 16.7093
rwrist 27.9882
rhand -36.8043 2.14651
rfingers 7.12502
rthumb -9.88585 -27.6014
lclavicle 2.48481e-016 3.18055e-015
lhumerus -39.9901 16.8695 80.694
lradius 20.1073
lwrist -42.5004
lhand -33.4001 3.39331
lfingers 7.12502
lthumb -6.60042 33.2704
rfemur -5.52851 -13.803 19.9921
rtibia 11.8303
rfoot -11.3182 11.0995
rtoes 2.70347e-014
lfemur -11.0102 14.546 -18.8118
ltibia 15.7127
lfoot -4.9352 -15.1228
ltoes 2.38542e-014
84
root -13.6808 16.654 4.58589 -108.471 87.8688 -116.661
lowerback -11.0761 -0.886363 2.88427
upperback -3.66693 -1.31234 -1.2331
thorax 2.28211 -0.608393 -3.0719
lowerneck -5.21527 -11.7338 -9.75275
upperneck 6.11039 40.9648 5.94792
head 167.169 61.8026 -37.8454
rclavicle 7.45443e-016 0
rhumerus -40.5334 -29.8422 -79.64
rradius 16.7271
rwrist 27.9393
rhand -36.7595 2.07676
rfingers 7.12502
rthumb -9.84259 -27.6732
lclavicle 7.45443e-016 0
lhumerus -40.0126 16.8129 80.72
lradius 20.1163
lwrist -42.4114
lhand -33.4626 3.37929
lfingers 7.12502
lthumb -6.66084 33.2545
rfemur -5.5602 -13.7491 20.0083
rtibia 11.8255
rfoot -11.3064 11.0497
rtoes 3.18055e-014
lfemur -11.0507 14.5381 -18.8121
ltibia 15.7131
lfoot -4.93309 -15.1107
ltoes 6.20208e-014
85
root -13.6799 16.6528 4.58658 -108.656 87.9009 -116.836
lowerback -11.0788 -0.876726 2.85959
upperback -3.64785 -1.29712 -1.25409
thorax 2.30472 -0.600437 -3.07828
lowerneck -5.2409 -11.7396 -9.73897
upperneck 6.0982 40.9557 5.95377
head 167.214 61.8069 -37.8243
rclavicle 1.88845e-015 -1.23246e-014
rhumerus -40.51 -29.983 -79.5898
rradius 16.6746
rwrist 28.0534
rhand -36.7981 2.15903
rfingers 7.12502
rthumb -9.87988 -27.5891
lclavicle 1.88845e-015 -1.23246e-014
lhumerus -39.9798 16.7314 80.7636
lradius 20.1342
lwrist -42.3614
lhand -33.4509 3.41581
lfingers 7.12502
lthumb -6.64953 33.2914
rfemur -5.54566 -13.7626 19.9716
rtibia 11.8178
rfoot -11.3059 11.0725
rtoes 2.22639e-014
lfemur -11.0338 14.549 -18.8449
ltibia 15.7175
lfoot -4.95684 -15.0931
ltoes 1.11319e-014
86
root -13.6787 16.6518 4.58757 -110.056 87.8448 -118.218
lowerback -11.0944 -0.899721 2.88534
upperback -3.63113 -1.33183 -1.2408
thorax 2.32777 -0.617288 -3.08394
lowerneck -5.24013 -11.7369 -9.74038
upperneck 6.10696 40.9829 5.95962
head 167.226 61.7745 -37.8177
rclavicle 1.83379e-014 8.74653e-015
rhumerus -40.4782 -29.9134 -79.6407
rradius 16.7344
rwrist 27.8897
rhand -36.6303 2.08124
rfingers 7.12502
rthumb -9.71797 -27.6746
lclavicle 1.83379e-014 8.74653e-015
lhumerus -39.9492 16.795 80.7422
lradius 20.0775
lwrist -42.3641
lhand -33.4388 3.34099
lfingers 7.12502
lthumb -6.63787 33.217
rfemur -5.51126 -13.7895 20.0037
rtibia 11.8311
rfoot -11.3052 11.0294
rtoes 1.59028e-014
lfemur -11.0054 14.5015 -18.796
ltibia 15.7017
lfoot -4.96258 -15.1111
ltoes -6.36111e-015
87
root -13.6789 16.6526 4.58804 -110.032 87.8613 -118.214
lowerback -11.1199 -0.904574 2.86955
upperback -3.62573 -1.33743 -1.23502
thorax 2.34751 -0.619573 -3.07039
lowerneck -5.24829 -11.7311 -9.75666
upperneck 6.08399 40.9251 5.93377
head 167.181 61.8473 -37.8396
rclavicle 2.10215e-014 1.19271e-015
rhumerus -40.4301 -29.8558 -79.6809
rradius 16.7274
rwrist 27.825
rhand -36.6344 2.09129
rfingers 7.12502
rthumb -9.72195 -27.6643
lclavicle 2.10215e-014 1.19271e-015
lhumerus -39.9265 16.7369 80.8089
lradius 20.0928
lwrist -42.2132
lhand -33.4841 3.28045
lfingers 7.12502
lthumb -6.68153 33.155
rfemur -5.53781 -13.7909 19.9931
rtibia 11.8423
rfoot -11.3248 11.043
rtoes 3.65764e-014
lfemur -11.0229 14.5114 -18.8191
ltibia 15.6852
lfoot -4.93542 -15.1205
ltoes -1.90833e-014
88
root -13.6787 16.6533 4.58851 -108.424 87.9042 -116.6
lowerback -11.0733 -0.88328 2.84723
upperback -3.65172 -1.30514 -1.22865
thorax 2.29807 -0.604481 -3.04557
lowerneck -5.2198 -11.7408 -9.767
upperneck 6.09952 40.9341 5.92695
head 167.116 61.8149 -37.87
rclavicle -9.93923e-017 -6.36111e-015
rhumerus -40.5152 -29.8903 -79.5844
rradius 16.715
rwrist 28.0807
rhand -36.7562 2.11763
rfingers 7.12502
rthumb -9.83947 -27.6325
lclavicle -9.93923e-017 -6.36111e-015
lhumerus -39.9481 16.664 80.871
lradius 20.085
lwrist -42.0618
lhand -33.4893 3.2842
lfingers 7.12502
lthumb -6.68662 33.1586
rfemur -5.54328 -13.7406 19.9696
rtibia 11.8415
rfoot -11.325 11.0703
rtoes -2.8625e-014
lfemur -10.9999 14.5384 -18.8325
ltibia 15.6764
lfoot -4.94629 -15.1003
ltoes -5.40694e-014
89
root -13.6787 16.6536 4.58876 -108.422 87.924 -116.583
lowerback -11.0555 -0.876779 2.83468
upperback -3.64656 -1.29453 -1.2461
thorax 2.2944 -0.599369 -3.05502
lowerneck -5.22506 -11.7345 -9.75267
upperneck 6.11079 40.985 5.95767
head 167.238 61.754 -37.8009
rclavicle 1.28216e-014 -3.97569e-016
rhumerus -40.4985 -29.8719 -79.6303
rradius 16.7163
rwrist 28.0331
rhand -36.77 2.1305
rfingers 7.12502
rthumb -9.85273 -27.619
lclavicle 1.28216e-014 -3.97569e-016
lhumerus -39.9686 16.8445 80.7307
lradius 20.0576
lwrist -42.362
lhand -33.5121 3.26213
lfingers 7.12502
lthumb -6.70862 33.1359
rfemur -5.52463 -13.7579 19.947
rtibia 11.8482
rfoot -11.337 11.0874
rtoes 0
lfemur -10.9774 14.5026 -18.8435
ltibia 15.6679
lfoot -4.94237 -15.0637
ltoes -9.54166e-014
90
root -13.6785 16.6543 4.58978 -108.738 87.8972 -116.892
lowerback -11.0596 -0.8891 2.8492
upperback -3.62949 -1.31361 -1.23741
thorax 2.31283 -0.608598 -3.05689
lowerneck -5.25314 -11.7418 -9.73891
upperneck 6.09844 40.9573 5.94116
head 167.131 61.8185 -37.88
rclavicle 7.85199e-015 -7.95139e-016
rhumerus -40.474 -29.9026 -79.624
rradius 16.7116
rwrist 28.0754
rhand -36.7403 2.09103
rfingers 7.12502
rthumb -9.82413 -27.6598
lclavicle 7.85199e-015 -7.95139e-016
lhumerus -39.9245 16.8106 80.7568
lradius 20.0675
lwrist -42.2557
lhand -33.4861 3.23641
lfingers 7.12502
lthumb -6.68347 33.1109
rfemur -5.51213 -13.7636 19.9731
rtibia 11.8404
rfoot -11.3365 11.0724
rtoes -1.59028e-015
lfemur -10.9762 14.5449 -18.8188
ltibia 15.6682
lfoot -4.9307 -15.1141
ltoes -3.49861e-014
